<svg id="DATABREW_HIW" data-name="DATABREW HIW" xmlns="http://www.w3.org/2000/svg" viewBox="0 0 44 48"><defs><style>.cls-1{fill:#232f3e;fill-rule:evenodd;}</style></defs><g id="Icon-Resource_Analytics_Res_CN-Elixir-Application-Discovery_48" data-name="Icon-Resource/Analytics/Res_CN-Elixir-Application-Discovery_48"><path id="Fill-1" class="cls-1" d="M4,24a1,1,0,1,1-1-1,1,1,0,0,1,1,1ZM0,24a3,3,0,1,0,3-3,3,3,0,0,0-3,3ZM44,5.29V42.71A3.3,3.3,0,0,1,40.71,46H3.29A3.3,3.3,0,0,1,0,42.71V29H2V42.71A1.29,1.29,0,0,0,3.29,44H40.71A1.29,1.29,0,0,0,42,42.71V5.29A1.29,1.29,0,0,0,40.71,4H3.29A1.29,1.29,0,0,0,2,5.29V19H0V5.29A3.3,3.3,0,0,1,3.29,2H40.71A3.3,3.3,0,0,1,44,5.29ZM3.87,36H7.48c4.37,0,9.38-2.87,11.41-6.52l1.75,1c-2.39,4.3-8,7.55-13.16,7.55H3.87ZM34.5,9h1.88L35.07,7.69l1.42-1.41L39.7,9.49a1,1,0,0,1,0,1.41l-3.21,3.22L35.07,12.7,36.78,11H34.5a13.25,13.25,0,0,0-11.38,6.82l-1.76-.94A15.27,15.27,0,0,1,34.5,9ZM22,23.67A12.55,12.55,0,0,0,34.5,36h2l-1.45-1.45,1.42-1.41,3.21,3.21a1,1,0,0,1,0,1.42L36.49,41l-1.42-1.42L36.64,38H34.5A14.56,14.56,0,0,1,20,23.69,12.58,12.58,0,0,0,7.48,11H3.87V9H7.48A14.56,14.56,0,0,1,22,23.67ZM10,18a1,1,0,1,1,1-1,1,1,0,0,1-1,1Zm0-4a3,3,0,1,0,3,3,3,3,0,0,0-3-3Zm2.26,12.34,1.86.84L13.27,29l-1.85-.84ZM8.77,29.19l5.5,2.5,2.5-5.5-5.5-2.5ZM36,18h3l0,9H36ZM34,29h7l0-13H34Zm-7-9h3l0,7H27Zm-2,9h7l0-11H25Z"/></g></svg>